<svg width="62" height="62" viewBox="0 0 62 62" fill="none" xmlns="http://www.w3.org/2000/svg">
<path d="M52.1139 38.7306C49.9441 36.4799 47.1233 36.4799 44.8631 38.7306C43.1634 40.4232 41.4818 42.0977 39.7822 43.7903C39.312 44.2585 38.9323 44.3485 38.3718 44.0784C37.3411 43.4302 36.1116 42.962 35.0809 42.2958C30.1808 39.1988 26.0401 35.2555 22.3695 30.7721C20.5794 28.5213 18.9883 26.1806 17.8491 23.4617C17.6683 22.9035 17.6683 22.6154 18.1384 22.1472C19.9285 20.5447 21.5197 18.8702 23.2194 17.1776C25.57 14.8368 25.57 12.118 23.2194 9.77719C21.809 8.37274 20.489 7.05831 19.1691 5.74388C17.7587 4.33942 16.4387 2.93496 15.0284 1.62053C12.8586 -0.540176 10.0378 -0.540176 7.77764 1.62053C6.07796 3.31308 4.39637 4.98763 2.69669 6.68018C1.08742 8.28271 0.255667 10.1553 0.056769 12.298C-0.232537 15.7732 0.6173 19.1403 1.84685 22.4173C4.39637 29.2596 8.24776 35.1655 12.8586 40.6933C19.1691 48.2017 26.691 54.1077 35.4607 58.3211C39.4205 60.1937 43.4708 61.6881 47.7923 61.9762C50.9024 62.1563 53.5423 61.328 55.694 58.9693C57.1044 57.2767 58.8041 55.8722 60.3048 54.2877C62.5651 51.947 62.5651 49.1381 60.3048 46.8873C57.5745 44.1684 54.8442 41.4495 52.1139 38.7306Z" fill="white"/>
</svg>
