<svg width="55" height="58" viewBox="0 0 55 58" fill="none" xmlns="http://www.w3.org/2000/svg">
<path d="M8.2918 27.1174C8.2918 27.1174 13.0435 20.825 11.1218 14.7794C9.20019 8.73376 2.90164 2.48456 3.0497 0C3.0497 0 0.509608 1.74428 0.0361376 7.3334C-0.437333 12.9225 3.89793 22.139 3.89793 22.139L5.5065 12.1576C5.5065 12.1576 11.0416 20.4302 8.2918 27.1174Z" fill="#C47A5E"/>
<path d="M13.0866 39.4032C13.0866 39.4032 23.213 37.0929 26.4054 29.3677C29.5979 21.6442 28.5507 10.0017 30.807 7.62356C30.807 7.62356 26.7679 7.2272 21.5489 12.4585C16.3299 17.6898 12.8814 30.6571 12.8814 30.6571L22.9708 21.9619C22.9708 21.9619 21.5319 34.9954 13.0866 39.4032Z" fill="#C47A5E"/>
<path d="M8.45376 53.0843C8.45376 53.0843 19.8541 60.4362 29.9836 56.3708C40.1146 52.3054 50.0359 40.7015 54.3187 40.6398C54.3187 40.6398 51.0029 36.5035 41.3515 36.4017C31.7016 36.2984 16.438 44.9103 16.438 44.9103L33.7698 46.4032C33.7698 46.4017 20.2782 56.9522 8.45376 53.0843Z" fill="#C47A5E"/>
</svg>
