<svg width="96" height="100" viewBox="0 0 96 100" fill="none" xmlns="http://www.w3.org/2000/svg">
<path d="M58.2392 54.6424C58.2733 55.2274 57.8246 55.7272 57.2396 55.7613C56.6546 55.7954 56.1548 55.3467 56.1207 54.7617C56.0696 53.8757 56.0128 52.7796 55.9504 51.6721C55.8141 49.1447 55.6721 46.5435 55.5585 45.2883C55.5074 44.7033 55.9333 44.1922 56.5183 44.1354C56.7569 44.1127 56.984 44.1751 57.1715 44.2887L57.2112 44.3171H57.2169C57.251 44.3398 57.2907 44.3626 57.3078 44.3739C57.5463 44.5045 57.7905 44.6636 58.0347 44.8453C58.2619 45.01 58.5005 45.2088 58.756 45.4417C59.0854 45.737 59.4205 45.9642 59.7499 46.1118C60.0453 46.2481 60.3236 46.3106 60.5792 46.3106C60.7325 46.3106 60.8688 46.2879 60.9881 46.2368C60.9994 46.2311 61.0108 46.2254 61.0222 46.2254C61.1187 46.18 61.2096 46.1175 61.3004 46.0266C61.3118 46.0153 61.3232 46.0039 61.3345 45.9926C61.7264 45.5325 62.0047 43.806 62.1637 41.6591C62.3739 38.8648 62.3171 35.5025 62.0331 33.1342C61.7662 30.8681 61.255 29.2324 60.3747 28.0567C59.5171 26.9095 58.2562 26.1427 56.4672 25.5862C55.9276 25.4214 55.2745 25.1375 54.6214 24.7683L54.5759 24.7399L54.5305 24.7115L54.4851 24.6831L54.3942 24.6263L54.3487 24.5979L54.2579 24.5411L54.2124 24.5127L54.167 24.4843L54.1045 24.4446L54.0307 24.3991C53.9966 24.3764 53.9569 24.348 53.9228 24.3253C53.3492 23.9391 52.7869 23.4847 52.3155 22.9793L52.3098 22.9736C52.2757 22.9338 52.236 22.8941 52.2019 22.8543C52.1678 22.8146 52.1281 22.7691 52.094 22.7294L52.0599 22.6896L52.0258 22.6499L51.9918 22.6101L51.9577 22.5703L51.9236 22.5249C51.1114 21.4799 50.6968 20.2645 51.1058 18.9525C51.1853 18.7026 51.2875 18.4527 51.4295 18.2085L53.2753 19.2535C53.2129 19.3614 53.1674 19.4693 53.1333 19.5716C52.963 20.1168 53.1901 20.6904 53.6047 21.2243L53.6275 21.2527L53.6502 21.2811L53.6729 21.3095L53.6956 21.3379L53.724 21.3663L53.7524 21.3947L53.7808 21.4231L53.8376 21.4856L53.866 21.514L53.8944 21.5424C53.9228 21.5708 53.9512 21.6048 53.9796 21.6332L54.008 21.6616L54.0648 21.7184L54.0932 21.7468C54.1216 21.7752 54.1556 21.8036 54.184 21.832L54.2124 21.8604L54.2465 21.8888C54.2806 21.9172 54.309 21.9456 54.3431 21.974L54.3771 22.0024C54.4226 22.0365 54.4623 22.0762 54.5078 22.1103C54.5419 22.1387 54.5759 22.1614 54.61 22.1898L54.6441 22.2182L54.6782 22.2466L54.7122 22.275L54.7463 22.3034L54.7804 22.3261C54.8145 22.3488 54.8485 22.3772 54.8883 22.4L54.9224 22.4227L54.9565 22.4454L54.9905 22.4681L55.0246 22.4908L55.0587 22.5135L55.0928 22.5363L55.1268 22.559L55.1609 22.5817L55.195 22.6044L55.2291 22.6271L55.2631 22.6499L55.2972 22.6726L55.3313 22.6953L55.3654 22.718L55.3995 22.7407L55.4335 22.7634L55.4676 22.7862L55.5017 22.8089L55.5358 22.8316L55.5698 22.8543L55.6039 22.877L55.638 22.8998C56.1548 23.1951 56.6546 23.4109 57.0579 23.5359C59.2899 24.2288 60.8915 25.2283 62.0388 26.7618C63.1633 28.2669 63.7994 30.2263 64.1175 32.8616C64.4128 35.3492 64.4753 38.8705 64.2538 41.7954C64.0607 44.3398 63.6177 46.5151 62.8737 47.4011C62.8453 47.4408 62.8112 47.4749 62.7771 47.509C62.4988 47.7873 62.1751 48.0031 61.8173 48.1565C61.7946 48.1678 61.7775 48.1735 61.7548 48.1848C61.3743 48.3382 60.9654 48.4177 60.5508 48.4177C59.9998 48.4177 59.4205 48.2871 58.8469 48.0258C58.5005 47.8668 58.1483 47.6567 57.8019 47.4011C57.8757 48.6449 57.9552 50.1045 58.0347 51.5414C58.1256 52.6092 58.1824 53.6428 58.2392 54.6424Z" fill="#C47A5E"/>
<path d="M42.5127 19.6739C42.2117 19.1741 42.3764 18.521 42.8762 18.22C43.376 17.919 44.0291 18.0837 44.3301 18.5835C44.4778 18.8277 44.5914 19.0776 44.6652 19.3275C45.023 20.4804 44.6766 21.5425 43.9667 22.4683C43.3646 23.2577 42.4843 23.9392 41.5926 24.4731C40.7293 24.9899 39.832 25.3818 39.1675 25.5863C37.3784 26.1429 36.1176 26.9096 35.26 28.0569C34.3797 29.2325 33.8685 30.8682 33.6016 33.1343C33.3176 35.5027 33.2608 38.8649 33.471 41.6593C33.6357 43.8572 33.9253 45.6179 34.3342 46.0268C34.4308 46.1233 34.5387 46.1915 34.6466 46.2369C34.7659 46.2824 34.9022 46.3108 35.0555 46.3108C35.3111 46.3108 35.5894 46.2426 35.8847 46.112C36.2142 45.9643 36.5492 45.7371 36.8787 45.4418C37.0888 45.2487 37.2819 45.0897 37.4636 44.9534C37.6624 44.8 37.8555 44.6694 38.043 44.5501C38.5427 44.2377 39.1959 44.3911 39.5083 44.8909C39.6105 45.0556 39.6616 45.243 39.6673 45.4248C39.7354 46.5323 39.7127 48.1509 39.6389 49.8434C39.5594 51.6779 39.4117 53.5862 39.2413 54.9947C39.1732 55.5797 38.645 55.9943 38.06 55.9261C37.475 55.858 37.0604 55.3298 37.1286 54.7448C37.2989 53.3476 37.4409 51.5018 37.5148 49.7525C37.5488 49.0028 37.5716 48.2645 37.5772 47.5886C37.3046 47.7761 37.032 47.9294 36.7594 48.0544C36.1858 48.3156 35.6064 48.4462 35.0555 48.4462C34.6353 48.4462 34.232 48.3724 33.8515 48.2134C33.4766 48.06 33.1302 47.8329 32.8292 47.5375C32.0284 46.7367 31.5513 44.482 31.3525 41.824C31.131 38.9047 31.1935 35.3834 31.4888 32.8901C31.8012 30.2548 32.4373 28.2954 33.5675 26.7903C34.7148 25.2569 36.3221 24.2573 38.5484 23.5644C39.0709 23.3997 39.7922 23.0873 40.5078 22.6614C41.1951 22.2468 41.8596 21.7413 42.2799 21.1904C42.5922 20.7814 42.7626 20.3555 42.6377 19.9579C42.6149 19.867 42.5695 19.7705 42.5127 19.6739Z" fill="#C47A5E"/>
<path d="M38.9062 8.93952C38.9062 5.65677 39.8376 3.42473 41.4563 1.9935C43.0636 0.573629 45.2899 0 47.9139 0C50.5378 0 52.7642 0.573629 54.3771 1.9935C56.0015 3.43041 56.9329 5.65677 56.9329 8.93952C56.9329 14.8292 54.5986 18.7139 51.6226 20.4518C50.4299 21.1504 49.1293 21.5082 47.8287 21.5139C46.5281 21.5196 45.2332 21.1788 44.0405 20.4802C41.1496 18.7764 38.9005 14.9484 38.9062 8.93952ZM42.8591 3.58376C41.6948 4.61175 41.0247 6.32695 41.0247 8.93952H41.0303C41.0303 14.0965 42.8194 17.2941 45.1196 18.6458C45.9715 19.1456 46.8972 19.3955 47.823 19.3898C48.7488 19.3841 49.6859 19.1285 50.5492 18.6174C52.9289 17.2259 54.8031 13.9772 54.8031 8.93384C54.8031 6.31559 54.1386 4.60607 52.9743 3.57808C51.7986 2.53873 50.0494 2.12413 47.9196 2.12413C45.7841 2.12981 44.0348 2.54441 42.8591 3.58376Z" fill="#C47A5E"/>
<path d="M36.3107 41.148C35.9074 41.574 35.2373 41.5967 34.8113 41.1935C34.3853 40.7902 34.3626 40.12 34.7659 39.6941C35.5951 38.8081 36.89 37.4734 38.2304 36.2466C39.6162 34.9801 41.0417 33.8499 42.0811 33.458C43.4498 32.9412 43.4612 32.8957 43.4952 32.7197C43.5293 32.5436 43.5748 32.3278 43.677 31.9984C43.7508 31.7655 43.7963 31.0556 43.8531 30.2036C43.9553 28.602 44.0859 26.5574 44.6652 25.1773C45.2956 23.6665 46.3293 22.8544 48.0616 23.5814C48.4705 23.7517 48.7147 24.1436 48.7147 24.5639V33.3842C48.7658 33.8669 48.8453 35.6787 47.2551 37.002C45.6932 38.2969 44.2393 39.6543 42.95 41.1139C41.6608 42.5679 40.5135 44.1298 39.5594 45.8393C39.2754 46.3504 38.6279 46.5379 38.1168 46.2482C37.6056 45.9642 37.4182 45.3168 37.7078 44.8056C38.7415 42.9541 39.9796 41.2673 41.3654 39.7054C42.7512 38.1436 44.279 36.7123 45.9034 35.3663C46.6814 34.7245 46.636 33.8726 46.6133 33.6625C46.5963 33.5886 46.5906 33.5148 46.5906 33.441V26.0803C46.176 27.1481 46.0624 28.9314 45.9715 30.3399C45.909 31.3225 45.8579 32.1403 45.6989 32.6401C45.6478 32.7992 45.6137 32.9809 45.5853 33.1286C45.3638 34.2418 45.3127 34.5087 42.8308 35.4458C42.0754 35.7298 40.8713 36.701 39.6616 37.8142C38.4064 38.9557 37.1399 40.2677 36.3107 41.148Z" fill="#C47A5E"/>
<path d="M60.6022 39.6938C61.0055 40.1198 60.9827 40.79 60.5568 41.1932C60.1308 41.5965 59.4606 41.5738 59.0574 41.1478C58.2282 40.2675 56.9617 38.9555 55.7065 37.8083C54.4968 36.7008 53.2927 35.7296 52.5373 35.4399C50.0554 34.5028 50.0043 34.2359 49.7828 33.1227C49.7544 32.975 49.7203 32.7933 49.6692 32.6342C49.5102 32.1344 49.459 31.3166 49.3966 30.334C49.3057 28.9255 49.1921 27.1478 48.7775 26.0744V33.4294C48.7775 33.5032 48.7718 33.577 48.7548 33.6509C48.7321 33.861 48.6866 34.7129 49.4647 35.3547C51.0891 36.7008 52.6168 38.132 54.0026 39.6938C55.3884 41.2557 56.6266 42.9425 57.6602 44.794C57.9442 45.3052 57.7625 45.9526 57.2513 46.2366C56.7402 46.5206 56.0927 46.3389 55.8087 45.8277C54.8546 44.1182 53.7073 42.5563 52.4181 41.1024C51.1288 39.6484 49.6749 38.291 48.113 36.9904C46.5227 35.6728 46.6023 33.8553 46.6534 33.3726V24.558C46.6534 24.1434 46.8976 23.7458 47.3065 23.5754C49.0388 22.8542 50.0724 23.6663 50.7029 25.1714C51.2822 26.5515 51.4128 28.5961 51.515 30.1977C51.5718 31.0497 51.6116 31.7596 51.6911 31.9925C51.7933 32.3219 51.8388 32.532 51.8728 32.7137C51.9069 32.8898 51.9183 32.9353 53.287 33.4521C54.3264 33.844 55.7519 34.9742 57.1377 36.2407C58.4724 37.4732 59.7673 38.8078 60.6022 39.6938Z" fill="#C47A5E"/>
<path d="M36.7933 32.9068C36.7819 32.3218 37.242 31.8333 37.827 31.822C38.412 31.8106 38.9004 32.2707 38.9117 32.8557L39.0253 37.4617C39.0367 38.0467 38.5767 38.5351 37.9917 38.5465C37.4067 38.5579 36.9182 38.0978 36.9069 37.5128L36.7933 32.9068Z" fill="#C47A5E"/>
<path d="M55.9674 32.8559C55.9787 32.2709 56.4672 31.8052 57.0522 31.8222C57.6371 31.8336 58.1029 32.322 58.0858 32.907L57.9722 37.5131C57.9609 38.0981 57.4724 38.5638 56.8875 38.5468C56.3025 38.5354 55.8367 38.047 55.8538 37.462L55.9674 32.8559Z" fill="#C47A5E"/>
<path d="M14.6832 71.1638C14.5185 70.6015 14.8422 70.0109 15.4045 69.8519C15.9668 69.6871 16.5574 70.0109 16.7164 70.5731C17.8637 74.4863 16.7448 82.2331 15.8134 88.6623C15.3363 91.9451 14.916 94.8757 14.8763 96.6477C14.8649 97.2838 14.6207 97.8688 14.2288 98.3118C13.8313 98.7605 13.2804 99.0672 12.6499 99.158C12.6045 99.1637 12.5591 99.1694 12.5136 99.1694C11.4516 99.2205 10.3043 99.3852 9.12864 99.5499C6.60695 99.9077 3.97734 100.277 1.39317 99.6976C1.3307 99.6805 1.26823 99.6635 1.21143 99.6408C0.0414559 99.141 -0.219801 98.4027 0.166405 97.4939C0.6662 96.324 3.06862 95.1824 5.22683 94.1544C6.60127 93.5013 7.86212 92.8992 8.07226 92.6493C9.81586 90.5536 9.09457 86.0441 8.49822 82.3127C8.32215 81.2279 8.16313 80.2056 8.06658 79.3025V79.2741C7.86212 77.2579 7.5895 75.4746 7.3396 73.8729C6.20938 66.5805 5.61304 62.7241 13.7858 59.0495C17.2333 57.499 21.9132 55.8349 26.8203 54.8694C30.6426 54.1197 34.6182 53.7903 38.2872 54.2673C38.8665 54.3412 39.2811 54.8694 39.2072 55.4487C39.1334 56.028 38.6052 56.4426 38.0202 56.3687C34.6068 55.9257 30.8584 56.2438 27.2292 56.9537C22.4925 57.8852 17.983 59.4868 14.6605 60.9805C7.95299 64.002 8.46414 67.3074 9.42966 73.5492C9.68523 75.1906 9.96921 77.0194 10.1737 79.0583L10.1793 79.0867C10.2702 79.95 10.4292 80.9325 10.594 81.9776C11.2585 86.1293 12.0649 91.167 9.70227 94.001C9.18544 94.6258 7.73149 95.3187 6.14123 96.0741C4.89742 96.6704 3.55138 97.3065 2.77329 97.7893C4.72704 98.0335 6.82277 97.7382 8.83899 97.4542C10.043 97.2838 11.2244 97.1191 12.3887 97.0623C12.4909 97.0396 12.5818 96.9885 12.6442 96.9203C12.7181 96.8408 12.7578 96.7329 12.7635 96.6193C12.8033 94.6826 13.2349 91.7065 13.712 88.3784C14.615 82.1366 15.6998 74.634 14.6832 71.1638Z" fill="#C47A5E"/>
<path d="M78.9805 70.573C79.1452 70.0108 79.7302 69.687 80.2924 69.8517C80.8547 70.0164 81.1784 70.6014 81.0137 71.1637C79.9971 74.6339 81.0819 82.1365 81.9849 88.3612C82.4677 91.6894 82.8936 94.6654 82.9334 96.6021C82.9334 96.7214 82.9788 96.8236 83.0527 96.9031C83.1151 96.977 83.206 97.0281 83.3082 97.0451C84.4725 97.1019 85.6539 97.2666 86.8579 97.437C88.8798 97.721 90.9699 98.0163 92.9236 97.7721C92.1455 97.2893 90.8052 96.6532 89.5557 96.0569C87.9711 95.3015 86.5172 94.6086 85.9946 93.9839C83.632 91.1498 84.4385 86.1178 85.103 81.9604C85.2677 80.9154 85.4267 79.9328 85.5176 79.0695L85.5233 79.0411C85.7561 76.758 86.0344 74.8554 86.2786 73.1856C87.3066 66.1714 87.6701 63.6838 79.5257 60.3159C76.2089 58.9414 72.0345 57.5727 67.7237 56.8003C64.3331 56.1869 60.8629 55.9427 57.6767 56.3573C57.0974 56.4311 56.5635 56.0222 56.4897 55.4372C56.4159 54.8579 56.8248 54.324 57.4098 54.2558C60.8231 53.8128 64.5091 54.0684 68.0929 54.7159C72.574 55.5224 76.9018 56.9366 80.3265 58.3564C90.0044 62.3605 89.5784 65.2741 88.3744 73.498C88.1245 75.1848 87.8462 77.1101 87.6303 79.2626V79.291C87.5338 80.1884 87.3691 81.2107 87.1987 82.3012C86.6024 86.0269 85.8811 90.5421 87.6247 92.6378C87.8348 92.8877 89.0956 93.4898 90.4701 94.1429C92.6283 95.1709 95.0307 96.3182 95.5305 97.4825C95.9167 98.3855 95.6555 99.1295 94.4855 99.6293C94.4287 99.652 94.3662 99.6747 94.3037 99.6861C91.7139 100.265 89.09 99.8962 86.5683 99.5384C85.3926 99.3737 84.2397 99.209 83.1833 99.1579C83.1379 99.1579 83.0924 99.1522 83.047 99.1465C82.4166 99.0557 81.8657 98.749 81.4681 98.3003C81.0705 97.8573 80.832 97.2723 80.8206 96.6362C80.7866 94.8642 80.3606 91.9336 79.8835 88.6508C78.9521 82.233 77.8332 74.4919 78.9805 70.573Z" fill="#C47A5E"/>
<path d="M82.0363 69.2101C82.5986 69.3805 82.9109 69.9712 82.7405 70.5334C82.5702 71.0957 81.9795 71.4081 81.4172 71.2377C77.0213 69.903 73.3978 69.5168 70.1378 69.6134C66.8721 69.7156 63.9358 70.3063 60.9767 70.9197C60.1191 71.0957 59.2104 71.3399 58.2903 71.5842C55.2461 72.3963 52.1167 73.2369 47.8174 72.4247C43.3306 73.305 39.7014 72.3225 36.1914 71.374C34.976 71.0446 33.772 70.7209 32.585 70.488C29.9781 69.9825 27.3258 69.5793 24.3781 69.5963C21.4304 69.6134 18.1534 70.0564 14.2856 71.232C13.7234 71.4024 13.1327 71.0844 12.9623 70.5278C12.7919 69.9655 13.11 69.3748 13.6666 69.2044C17.7558 67.9606 21.226 67.4949 24.3667 67.4779C27.5075 67.4552 30.2791 67.8754 32.9825 68.398C34.2604 68.6479 35.4929 68.9773 36.7367 69.318C40.0535 70.2154 43.4839 71.1412 47.5447 70.3119C47.6924 70.2722 47.8571 70.2665 48.0218 70.2949C51.952 71.0787 54.8883 70.2949 57.7394 69.5282C58.6482 69.284 59.5512 69.0454 60.5508 68.8353C63.6007 68.2049 66.6278 67.5971 70.081 67.4892C73.5455 67.387 77.3905 67.7959 82.0363 69.2101Z" fill="#C47A5E"/>
<path d="M56.3083 54.3527C56.6433 53.87 57.3022 53.7507 57.7849 54.0801C58.2677 54.4152 58.3869 55.074 58.0575 55.5568C56.8819 57.2663 55.5472 58.618 54.1273 59.6233C52.077 61.0716 49.8393 61.7929 47.5959 61.8042C45.3582 61.8156 43.1318 61.117 41.1156 59.7255C39.7298 58.7714 38.4463 57.4935 37.3217 55.8976C36.9866 55.4205 37.1002 54.756 37.5773 54.4209C38.0544 54.0858 38.7189 54.1994 39.0596 54.6765C40.0365 56.0623 41.144 57.1641 42.3253 57.9763C43.9781 59.1178 45.7898 59.6858 47.5959 59.6801C49.402 59.6687 51.2251 59.0781 52.9119 57.8854C54.1273 57.0221 55.2803 55.8464 56.3083 54.3527Z" fill="#C47A5E"/>
<path d="M23.759 57.7944C23.4807 57.2776 23.6738 56.6358 24.1906 56.3575C24.7074 56.0792 25.3492 56.2723 25.6275 56.7892C26.7066 58.794 27.2802 60.7591 27.4506 62.7015C27.621 64.6326 27.3882 66.5409 26.8429 68.4208C26.6782 68.983 26.0932 69.3068 25.531 69.1421C24.9687 68.9774 24.645 68.3924 24.8097 67.8301C25.2811 66.2058 25.4798 64.5587 25.3322 62.8833C25.1845 61.2192 24.6904 59.5267 23.759 57.7944Z" fill="#C47A5E"/>
<path d="M70.0128 56.2045C70.2911 55.6876 70.9328 55.4945 71.4497 55.7728C71.9665 56.0511 72.1596 56.6929 71.8813 57.2097C70.9499 58.942 70.4501 60.6345 70.3081 62.2986C70.1604 63.974 70.3592 65.6211 70.8306 67.2454C70.9953 67.8077 70.6716 68.3926 70.1093 68.5574C69.5471 68.7221 68.9564 68.3983 68.7974 67.8361C68.2521 65.9505 68.0193 64.0478 68.1896 62.1168C68.36 60.1744 68.9337 58.2093 70.0128 56.2045Z" fill="#C47A5E"/>
</svg>
