<svg width="100" height="100" viewBox="0 0 100 100" fill="none" xmlns="http://www.w3.org/2000/svg">
<path d="M37.8477 38.4787C38.4326 38.5241 38.8699 39.0409 38.8188 39.6258C38.7733 40.205 38.2679 40.6366 37.6887 40.5968C37.0981 40.7047 35.7126 43.8053 34.3781 47.3544C32.913 51.2443 31.675 55.5998 31.5104 57.5646C31.5047 57.6441 31.499 57.7122 31.4933 57.769C32.2202 59.9894 34.1907 67.4625 35.6955 73.1695C36.6722 76.872 37.4445 79.8135 37.5013 79.9328C37.7455 80.4666 37.5127 81.0969 36.9846 81.3411C36.4508 81.5853 35.8205 81.3524 35.5763 80.8186C35.4457 80.5347 34.645 77.508 33.6455 73.709C32.1066 67.877 30.085 60.1881 29.4263 58.2744C29.3922 58.1722 29.3695 58.0586 29.3695 57.9451C29.3695 57.752 29.3752 57.5703 29.3866 57.3942C29.5626 55.2647 30.8573 50.6651 32.3849 46.6105C34.0203 42.2777 36.0703 38.4957 37.6944 38.4787C37.7796 38.4787 37.825 38.4787 37.8477 38.4787ZM37.7171 40.5968C37.7342 40.5968 37.7398 40.5968 37.7171 40.5968V40.5968ZM39.7444 83.5046C39.699 84.152 39.5002 84.629 39.2049 84.964C38.9437 85.2593 38.5916 85.4638 38.1884 85.5887C37.7398 85.725 37.2231 85.7704 36.695 85.7307C35.5536 85.6512 34.4065 85.2139 33.708 84.5949C32.7824 83.7772 32.294 83.2491 32.0271 82.6926C31.7602 82.1247 31.658 81.3922 31.5274 80.1997C31.4933 79.876 30.2895 74.4074 28.9947 68.5301C27.4899 61.6987 25.826 54.5265 25.8431 54.4186C25.8772 54.2312 25.9964 53.5725 26.1157 52.9251C27.6262 44.6343 29.5058 34.3219 36.1952 29.762C36.2747 29.7052 36.6382 29.5519 37.0584 29.3929C37.4105 29.2623 37.7739 29.1373 38.0238 29.0919C38.5973 28.9783 38.9721 28.4161 38.8585 27.8426C38.745 27.2691 38.1828 26.8943 37.6092 27.0078C37.2571 27.076 36.7688 27.2407 36.3088 27.411C35.7466 27.6211 35.2015 27.871 34.997 28.013C27.5807 33.0726 25.6103 43.8677 24.0316 52.556C23.9635 52.9195 23.9067 53.2545 23.759 54.0382C23.6966 54.3675 25.3718 61.9655 26.9163 68.99C28.1997 74.822 29.3979 80.2564 29.4149 80.4325C29.5739 81.8465 29.6989 82.7323 30.1021 83.5955C30.5109 84.4643 31.1413 85.1741 32.294 86.1906C33.3219 87.0935 34.9516 87.7352 36.5473 87.8488C37.3196 87.8999 38.0919 87.8317 38.8074 87.616C39.574 87.3831 40.2611 86.9743 40.7949 86.3723C41.3855 85.7023 41.7773 84.805 41.8568 83.6523C41.8966 83.0674 41.4537 82.562 40.8688 82.5222C40.2895 82.4768 39.7841 82.9197 39.7444 83.5046Z" fill="#C47A5E"/>
<path d="M61.8972 40.6022C61.3179 40.6419 60.8182 40.2104 60.7671 39.6311C60.7217 39.0462 61.1533 38.5352 61.7382 38.4841C61.7609 38.4841 61.812 38.4841 61.8801 38.4841C63.5042 38.5011 65.5599 42.2831 67.1897 46.6159C68.7172 50.6704 70.0119 55.2701 70.188 57.3996C70.205 57.5757 70.2107 57.7574 70.205 57.9504C70.205 58.047 70.188 58.1435 70.1653 58.2344C69.7564 59.6768 69.109 62.3116 68.3765 65.2929C66.7638 71.8518 64.7478 80.046 63.8336 81.0852C63.4474 81.5282 62.7774 81.5679 62.3401 81.1874C61.8972 80.8013 61.8574 80.1312 62.2436 79.694C62.8171 79.0409 64.7592 71.1306 66.3208 64.7875C67.042 61.846 67.6894 59.2338 68.0869 57.8028C68.0812 57.7403 68.0755 57.6665 68.0698 57.5757C67.9052 55.6165 66.6672 51.2553 65.2021 47.3655C63.8733 43.805 62.4934 40.7044 61.8972 40.6022ZM61.8688 40.5965C61.8517 40.5965 61.8574 40.5965 61.8688 40.5965V40.5965ZM57.729 83.6463C57.8085 84.8047 58.2004 85.6963 58.7909 86.3664C59.3247 86.974 60.0119 87.3772 60.7785 87.61C61.494 87.8314 62.2663 87.8996 63.0386 87.8428C64.6343 87.7292 66.264 87.0875 67.2919 86.1846C68.4446 85.1682 69.075 84.4583 69.4838 83.5895C69.8927 82.7263 70.0176 81.8348 70.1709 80.4265C70.1937 80.2391 71.5225 74.5321 72.9308 68.5184C74.5549 61.5564 76.2755 54.1855 76.2187 53.8561C75.4066 49.4609 74.4697 44.3955 72.7831 39.7504C71.0568 34.9974 68.5412 30.6986 64.5945 28.007C64.3958 27.8707 63.879 27.6038 63.2998 27.3766C62.8966 27.2176 62.448 27.07 62.0335 26.9905C61.4599 26.8769 60.8977 27.2517 60.7842 27.8309C60.6706 28.4045 61.0454 28.9667 61.6246 29.0802C61.9085 29.137 62.2322 29.2449 62.5275 29.3585C62.9534 29.5288 63.2884 29.6935 63.3963 29.7673C66.9228 32.1694 69.1942 36.1047 70.7899 40.4829C72.4197 44.9691 73.3396 49.9379 74.1346 54.248C74.1573 54.3615 72.4424 61.2895 70.8637 68.0471C69.4441 74.1175 68.0982 79.8814 68.0642 80.205C67.9336 81.3975 67.8313 82.1301 67.5644 82.698C67.3032 83.2601 66.8149 83.7882 65.8836 84.6003C65.1851 85.2136 64.038 85.6565 62.8966 85.736C62.3685 85.7758 61.8517 85.7303 61.4031 85.5941C60.9999 85.4691 60.6479 85.2704 60.3866 84.9694C60.0914 84.6344 59.8926 84.1574 59.8472 83.51C59.8074 82.9251 59.302 82.4822 58.7171 82.5219C58.1322 82.556 57.6893 83.0614 57.729 83.6463Z" fill="#C47A5E"/>
<path d="M18.9383 70.8805C18.3648 70.7669 17.99 70.2047 18.1035 69.6312C18.2171 69.0576 18.7793 68.6829 19.3529 68.7964C23.0496 69.5347 25.0883 71.3177 27.5017 73.4245C28.2059 74.0378 28.9498 74.6852 29.8243 75.378C30.2842 75.7414 30.3637 76.4058 30.0003 76.8715C29.6369 77.3314 28.9725 77.4109 28.5068 77.0475C27.655 76.3774 26.86 75.6846 26.0991 75.0202C23.9298 73.1179 22.09 71.5108 18.9383 70.8805ZM36.3774 81.5223C37.6949 82.1583 39.2451 82.817 40.9658 83.3962C42.4195 83.8846 43.9868 84.3161 45.6222 84.6341C45.7699 84.6625 45.9175 84.6569 46.0538 84.6285C46.1901 84.6114 46.3264 84.6171 46.4513 84.6569C46.5933 84.6966 46.7182 84.7704 46.8318 84.8727C46.9397 84.9749 47.0192 85.0998 47.0703 85.2418C47.1214 85.3837 47.1384 85.5314 47.1157 85.679L45.9402 94.7421C45.7642 95.8665 45.5825 96.6672 45.4065 97.2067C45.1112 96.3208 44.9465 95.0317 45.0089 93.896C45.0714 92.8341 44.9806 91.7211 44.8102 90.8466C44.566 89.603 44.0322 88.683 43.3167 88.5467C41.7608 88.2514 38.4955 86.9681 35.0373 85.6052C31.7266 84.2991 28.2399 82.9306 25.73 82.2321C23.3676 81.5734 16.3318 79.4325 10.4771 76.491C7.87064 75.1792 5.51968 73.7198 3.95238 72.1809C2.57247 70.8237 1.8456 69.4324 2.22039 68.0866C2.2715 67.8992 2.351 67.7061 2.44754 67.5074C3.31069 65.7867 6.91095 65.0826 11.3971 64.8895C16.1898 64.6851 21.9026 65.1167 26.5874 65.5482C27.1723 65.5994 27.6834 65.1735 27.7402 64.5886C27.7913 64.0037 27.3654 63.4926 26.7805 63.4358C22.0218 62.9929 16.2182 62.5556 11.3176 62.7657C6.11026 62.9872 1.83993 63.9866 0.556553 66.5477C0.397551 66.8657 0.272621 67.1894 0.181763 67.5187C-0.43153 69.722 0.550875 71.7947 2.47025 73.6857C4.20792 75.4007 6.74627 76.9793 9.52313 78.382C15.5368 81.4087 22.7487 83.6006 25.1678 84.2764C27.5415 84.9351 30.9884 86.2923 34.265 87.5814C37.8141 88.9783 41.1588 90.2958 42.9249 90.6308C43.1464 90.6706 42.6466 90.8409 42.7205 91.2441C42.8624 91.971 42.9362 92.8966 42.8851 93.7768C42.7829 95.5258 43.1691 97.6269 43.7426 98.7399C44.0209 99.2737 44.3843 99.6712 44.8216 99.8586C45.4689 100.131 46.0879 100.006 46.6444 99.3589C47.1612 98.7569 47.6552 97.4281 48.0243 95.0601L48.03 95.0261L49.2111 85.9459C49.2736 85.4519 49.2225 84.9692 49.0635 84.5263C48.9045 84.0833 48.6433 83.6801 48.2798 83.3337C47.9221 82.993 47.4962 82.7488 47.0476 82.6182C46.6671 82.5047 46.2582 82.4706 45.8494 82.516C44.7988 82.3059 43.7824 82.0504 42.817 81.7608C45.6506 80.926 49.2793 79.8698 49.7279 79.8755C50.4207 79.8811 54.2083 80.943 57.059 81.7494C56.105 82.0277 55.0488 82.2832 53.8392 82.5217C53.4304 82.4763 53.0272 82.5103 52.641 82.6239C52.1867 82.7602 51.7665 82.9987 51.4088 83.3394C51.0453 83.6858 50.7784 84.089 50.6251 84.5319C50.4661 84.9749 50.415 85.4576 50.4775 85.9516L51.6586 95.0317L51.6643 95.0601C52.0391 97.4338 52.5331 98.7683 53.0499 99.3645C53.6064 100.012 54.2254 100.137 54.8727 99.8643C55.293 99.6882 55.6394 99.3191 55.9119 98.8194C55.9233 98.7967 55.9347 98.774 55.9517 98.7512C56.5309 97.6382 56.9114 95.5371 56.8092 93.7824C56.7581 92.9022 56.8319 91.9766 56.9738 91.2498C57.0533 90.8466 56.5536 90.6819 56.7694 90.6365C58.5355 90.3014 61.8859 88.984 65.4293 87.587C68.7059 86.298 72.1528 84.9408 74.5265 84.2821C76.8775 83.629 87.8202 79.2622 94.362 74.759C96.3382 73.3961 97.9452 71.9992 98.8481 70.659C99.9555 69.0122 100.12 67.4279 98.9106 66.0025C98.1497 65.111 96.8095 64.3444 94.7595 63.7595C92.0962 62.9985 88.4221 62.7714 84.5323 62.7998C80.6651 62.8282 76.6447 63.0951 73.2034 63.3449C72.6185 63.3847 72.1756 63.8958 72.221 64.4807C72.2607 65.0656 72.7718 65.5085 73.3567 65.4631C76.8093 65.2189 80.8241 64.9463 84.5493 64.9179C88.2518 64.8895 91.7271 65.0996 94.186 65.8038C95.8101 66.2694 96.8095 66.7975 97.2979 67.3768C97.7749 67.939 97.6443 68.6658 97.0991 69.4779C96.3495 70.5909 94.9356 71.8061 93.1695 73.0213C86.8265 77.3939 76.2415 81.6131 73.9757 82.2434C71.4657 82.9419 67.979 84.3162 64.6684 85.6166C61.2101 86.9794 57.9449 88.2628 56.3889 88.5581C55.6791 88.6944 55.1396 89.6143 54.8955 90.8579C54.7251 91.7325 54.6342 92.8455 54.6967 93.9074C54.7649 95.0431 54.5945 96.3265 54.2992 97.2123C54.1232 96.6729 53.9471 95.8722 53.7654 94.7478L52.5899 85.6847C52.5729 85.5371 52.5899 85.3894 52.6354 85.2474C52.6865 85.1055 52.766 84.9806 52.8739 84.8783C52.9818 84.7761 53.1124 84.7023 53.2543 84.6625C53.3963 84.6228 53.5439 84.6114 53.6973 84.6398C53.8279 84.6625 53.9642 84.6625 54.0891 84.6398C56.2129 84.2253 57.9051 83.7653 59.41 83.2202C60.9148 82.675 62.2209 82.0504 63.5781 81.3121C64.0949 81.0339 64.2822 80.3865 64.004 79.8755C63.7257 79.3587 63.0784 79.1713 62.5673 79.4496C61.8688 79.83 61.1874 80.1764 60.4776 80.4944C60.0517 80.3809 59.2055 80.1424 58.2061 79.8584C55.2135 79.0123 50.8012 77.763 49.7563 77.7516C48.8875 77.746 43.3394 79.3928 40.4717 80.2502L39.4382 80.5569C38.6829 80.2446 37.9731 79.9266 37.3201 79.6142C36.792 79.3587 36.1559 79.5802 35.9004 80.1083C35.6278 80.6307 35.8493 81.2667 36.3774 81.5223ZM48.03 95.0545V95.0601V95.0545ZM32.567 66.1843C31.9821 66.1331 31.5506 65.6221 31.6017 65.0372C31.6528 64.4523 32.1639 64.0207 32.7488 64.0718C33.2258 64.1172 33.7482 64.1286 34.1855 64.1456C34.4069 64.1513 34.6114 64.157 34.7363 64.1627C34.9407 64.174 35.1281 64.2365 35.2871 64.3444C39.2224 67.0417 43.9016 68.1888 48.6546 68.1888C54.1061 68.1888 59.6598 66.684 64.322 64.2819C64.4753 64.2024 64.6343 64.1683 64.7933 64.1627C64.9183 64.157 65.0375 64.157 65.1624 64.157H65.1681C65.4691 64.157 65.7757 64.1513 67.025 63.9866C67.6043 63.9128 68.138 64.3217 68.2119 64.9009C68.2857 65.4801 67.8768 66.0139 67.2976 66.0877C65.9461 66.2694 65.5543 66.2751 65.1852 66.2751H65.1795H65.0829C60.188 68.7567 54.3787 70.3069 48.6546 70.3069C43.595 70.3069 38.5978 69.0974 34.3445 66.2694L34.123 66.2638C33.6687 66.2524 33.1236 66.2354 32.567 66.1843ZM71.0455 76.4172C70.5855 76.7806 69.9211 76.7068 69.552 76.2468C69.1886 75.7868 69.2624 75.1224 69.7224 74.7533C70.1369 74.424 70.3527 74.2479 70.5742 74.0719C73.6463 71.6074 76.1109 69.6369 80.3244 68.7907C80.898 68.6772 81.4601 69.052 81.5737 69.6255C81.6873 70.1991 81.3125 70.7612 80.739 70.8748C77.0251 71.6187 74.7423 73.4472 71.8973 75.7244C71.5679 75.9969 71.2159 76.2809 71.0455 76.4172Z" fill="#C47A5E"/>
<path d="M42.55 28.1202C41.9764 28.228 41.4199 27.8533 41.3063 27.2797C41.1984 26.7062 41.5732 26.1497 42.1525 26.0361C42.4761 25.9736 42.7374 25.9225 42.8396 25.8998C42.9872 25.8714 43.0894 25.8487 43.1121 25.843C43.998 25.5477 44.6624 25.2013 45.0883 24.6846C45.5142 24.1678 45.7584 23.4126 45.8265 22.2825C45.8606 21.6976 46.3603 21.249 46.9452 21.2831C47.5301 21.3171 47.9787 21.8169 47.9447 22.4018C47.8538 24.0145 47.4449 25.1616 46.7238 26.0361C46.0026 26.9106 45.0315 27.4444 43.7879 27.8589H43.7822C43.68 27.893 43.4926 27.9384 43.2655 27.9839C42.9759 28.035 42.743 28.0804 42.55 28.1202ZM51.7039 22.5608C51.6642 21.9759 52.1014 21.4705 52.6863 21.425C53.2712 21.3853 53.7823 21.8225 53.8221 22.4074C53.9016 23.4921 54.1514 24.2132 54.5716 24.7073C54.9975 25.2127 55.6563 25.5477 56.5251 25.8373C56.5308 25.8373 56.6841 25.8714 56.9169 25.9225C57.3315 26.0077 57.6154 26.0702 57.8482 26.1156C58.4218 26.2292 58.7965 26.7913 58.6773 27.3649C58.5637 27.9384 58.0072 28.3132 57.4337 28.194C56.9851 28.1031 56.5989 28.0236 56.4853 28.0009C56.1844 27.9384 55.9516 27.8816 55.855 27.8533C54.6341 27.4444 53.6744 26.9333 52.9589 26.0929C52.2377 25.2468 51.8175 24.1337 51.7039 22.5608Z" fill="#C47A5E"/>
<path d="M49.9943 0C53.2027 0 55.8603 1.02783 57.7343 2.85636C59.6139 4.69056 60.6758 7.29705 60.6758 10.443C60.6758 13.9411 59.4719 17.2915 57.6036 19.7673C55.6729 22.3284 53.021 23.9809 50.2101 23.9809C47.3423 23.9809 44.5825 22.3057 42.5609 19.7446C40.5904 17.2517 39.3014 13.8956 39.3014 10.4487H39.3071C39.3071 7.30273 40.369 4.69624 42.2486 2.86203C44.1282 1.02783 46.7858 0 49.9943 0ZM56.2578 4.37823C54.7814 2.94154 52.6292 2.12949 49.9943 2.12949C47.3594 2.12949 45.2072 2.94154 43.7307 4.37823C42.26 5.80925 41.4309 7.89331 41.4309 10.443H41.4366C41.4366 13.4073 42.5382 16.2863 44.2305 18.4272C45.8659 20.4999 48.0295 21.8514 50.2157 21.8514C52.3225 21.8514 54.3725 20.534 55.9114 18.4897C57.5128 16.3602 58.552 13.4754 58.552 10.443C58.552 7.88763 57.7286 5.80925 56.2578 4.37823Z" fill="#C47A5E"/>
<path d="M36.5934 65.5313C36.3038 66.0367 35.6564 66.2127 35.1453 65.9231C34.6399 65.6335 34.4639 64.9862 34.7535 64.4751C35.2248 63.6574 36.2356 61.4597 36.883 59.0406C37.2805 57.5471 37.5304 55.9969 37.3941 54.7078L37.2067 52.9531V52.9247C36.8603 49.6709 36.724 48.3477 36.7638 47.2972C36.7921 46.5363 36.9057 45.9968 37.0931 45.0882C37.2862 44.1569 37.5701 42.8111 37.9336 40.3238C38.2913 37.8763 37.8995 34.702 37.5531 31.9251C37.36 30.3805 37.184 28.9609 37.1556 27.7456C37.1442 27.1948 37.5531 26.7292 38.0926 26.6667C38.1777 26.6553 39.1658 26.5077 40.0801 26.3657C40.7956 26.2578 41.4657 26.1556 41.6928 26.1272C42.272 26.0534 42.8058 26.4623 42.8796 27.0415C42.8853 27.0756 42.8853 27.104 42.8853 27.138C43.0954 32.0103 43.9245 36.2579 45.2987 39.2108C46.4572 41.7037 47.9734 43.1972 49.7678 43.1972C51.5623 43.1972 53.0728 41.7037 54.2256 39.2165C55.5941 36.2636 56.4175 32.0046 56.622 27.1267C56.6447 26.5418 57.1387 26.0875 57.7236 26.1102C57.7634 26.1102 57.8088 26.1159 57.8485 26.1215C58.1325 26.1613 58.7969 26.2635 59.5294 26.3714C60.5573 26.5304 61.6987 26.7008 61.8066 26.7178C62.3858 26.7859 62.7946 27.3084 62.7322 27.8819C62.7265 28.1261 62.7208 28.376 62.7095 28.6542C62.6243 31.38 62.4653 36.8258 62.9991 40.5396C63.919 46.9338 63.8906 47.0473 63.2716 49.6198C63.0218 50.659 62.664 52.1354 62.2325 54.7987C62.028 56.0366 62.2438 57.5244 62.6186 58.9668C63.2546 61.3916 64.3506 63.629 64.8333 64.4864C65.1229 64.9975 64.9412 65.6392 64.4301 65.9288C63.919 66.2184 63.2773 66.0367 62.9877 65.5256C62.4539 64.583 61.2557 62.1298 60.5629 59.5063C60.12 57.814 59.8758 56.031 60.1314 54.458C60.5743 51.7379 60.9434 50.199 61.2046 49.1257C61.7327 46.9394 61.7554 46.8429 60.8923 40.8406C60.3415 37.0132 60.5005 31.5106 60.5856 28.6883C60.1711 28.6258 59.6771 28.552 59.2057 28.4782L58.6833 28.393C58.388 33.0608 57.5249 37.1551 56.1563 40.108C54.6458 43.3733 52.4936 45.3267 49.7678 45.3267C47.0421 45.3267 44.8899 43.3676 43.368 40.1024C41.9938 37.1551 41.1249 33.0665 40.824 28.4044L40.3867 28.4725L39.3191 28.6372C39.3873 29.5231 39.5179 30.5679 39.6542 31.6753C40.0119 34.577 40.4265 37.9047 40.0233 40.6362C39.6599 43.1404 39.3646 44.5487 39.1601 45.5255C38.9955 46.3318 38.8932 46.8088 38.8705 47.3767C38.8365 48.2682 38.9727 49.5516 39.3078 52.7033L39.3135 52.7317C39.3475 53.0326 39.393 53.4699 39.5009 54.492C39.6655 56.0707 39.3873 57.8822 38.9273 59.5915C38.2402 62.1923 37.1158 64.6171 36.5934 65.5313Z" fill="#C47A5E"/>
</svg>
