<svg width="100" height="84" viewBox="0 0 100 84" fill="none" xmlns="http://www.w3.org/2000/svg">
<path d="M76.3673 68.4914C76.864 68.2822 77.4391 68.5123 77.6482 69.0089C77.8573 69.5056 77.6273 70.0807 77.1306 70.2898C73.2045 71.9575 70.0311 73.139 66.7218 73.9284C64.4686 74.4617 62.1578 74.8172 59.502 75.0158L61.175 75.638C61.5409 75.7425 61.8285 76.0614 61.8755 76.464C61.9173 76.8352 61.9644 77.1593 62.001 77.4364C65.7024 77.0861 69.6024 77.0443 73.424 77.0077C80.3719 76.9397 87.0219 76.8717 91.429 74.8904C92.7256 74.3101 93.928 72.5901 94.8429 71.2831C95.0677 70.9642 95.2768 70.6662 95.4389 70.4414C95.7264 70.0545 95.9251 69.6833 96.0244 69.3435C96.108 69.056 96.108 68.7946 96.0244 68.5646C95.9251 68.2979 95.7003 68.0313 95.3448 67.7647C94.7854 67.3517 93.9385 66.97 92.7569 66.6302C88.7942 65.4958 84.1152 64.6959 79.3786 64.2149C74.2971 63.6973 69.1423 63.5457 64.7143 63.7496C59.9987 66.144 54.41 67.634 48.8998 67.634C44.0326 67.634 39.2228 66.4682 35.1294 63.7444L34.9046 63.7392C34.4707 63.7235 33.9531 63.7078 33.4146 63.6607H33.3989C29.6662 63.2687 20.6637 63.3471 13.4962 64.5913C9.08901 65.3598 5.45037 66.5204 4.44138 68.1986C4.26885 69.9186 4.32113 71.5288 4.77596 72.8515C5.20988 74.1166 6.02544 75.1256 7.40039 75.7164C11.635 77.5305 18.2431 77.29 22.0804 77.1488C23.079 77.1122 23.8998 77.0809 24.4801 77.0966C27.8887 77.1802 31.5691 77.0234 34.9569 76.7829C41.3715 76.3228 46.657 75.5595 47.2111 75.4707C51.4353 74.8119 54.3211 76.2183 56.7835 77.4207C57.1338 77.5932 57.4684 77.7553 57.8029 77.9069C57.9702 77.933 58.1271 78.0062 58.2578 78.1108C58.9479 78.4088 59.6066 78.6283 60.2339 78.6911C60.1764 78.3356 60.1032 77.8755 60.0196 77.2795L50.7348 73.8239C50.3845 73.6932 50.1545 73.3847 50.1074 73.0449C50.0917 72.9403 50.0656 72.8462 50.0238 72.7626C49.9349 72.5796 49.7885 72.4332 49.616 72.3444C49.4435 72.2503 49.2396 72.2137 49.0357 72.2398C48.9416 72.2502 48.8475 72.2816 48.7534 72.3287C48.6384 72.3862 48.5181 72.4123 48.4031 72.4228C47.0072 72.5273 45.2873 73.0135 43.6091 73.4893C41.2722 74.148 39.0085 74.7858 37.3774 74.4878C37.3565 74.4826 37.3356 74.4774 37.3147 74.4721C34.5804 73.7768 29.6662 72.7835 25.2956 72.0882C21.8975 71.5445 18.8391 71.1838 17.4328 71.2831C16.8943 71.3197 16.429 70.9171 16.3872 70.3786C16.3506 69.8402 16.7532 69.3749 17.2916 69.3331C18.8443 69.2233 22.0648 69.5997 25.5988 70.1643C30.0583 70.8753 35.0353 71.8791 37.7852 72.5796C38.9719 72.7678 40.9951 72.198 43.0758 71.6124C44.7906 71.1315 46.542 70.6348 48.0842 70.4937C48.309 70.4048 48.5338 70.3421 48.7638 70.3107C49.3807 70.2218 49.9976 70.3421 50.5257 70.6296C51.0537 70.9119 51.498 71.3563 51.7751 71.9209C51.817 72.0045 51.8535 72.0934 51.8849 72.1823L55.0269 73.3533C55.1524 73.2906 55.2935 73.254 55.4451 73.2488C59.753 73.1651 63.0779 72.7835 66.2722 72.0255C69.4717 71.2622 72.551 70.112 76.3673 68.4914ZM41.4447 78.163C44.7854 77.8023 47.1432 77.4573 47.5091 77.405C50.0917 77.0024 52.1568 77.5357 53.9343 78.2676C50.4211 78.6179 47.4203 78.9263 45.3029 79.2714L45.1827 79.2923C43.975 79.4857 43.3634 79.5903 42.6053 80.5731C42.5896 80.594 42.574 80.6097 42.5583 80.6306C42.5374 80.662 41.3715 81.1639 40.3259 81.3312C40.1534 81.3573 40.0018 81.373 39.892 81.3625C39.9025 80.845 40.3259 79.8569 41.4447 78.163ZM37.9577 81.6344C37.8897 80.9339 38.172 79.9039 39.0137 78.4088C37.7799 78.5238 36.4625 78.6388 35.098 78.7329C31.6789 78.9786 27.9462 79.1302 24.4382 79.0466C23.9259 79.0361 23.1313 79.0623 22.1536 79.0989C18.1543 79.2452 11.2691 79.4962 6.64234 77.5096C4.69232 76.6731 3.53694 75.2511 2.9305 73.4736C2.36066 71.8059 2.29792 69.8402 2.52795 67.7908C2.53841 67.6758 2.575 67.566 2.62728 67.4562C3.84016 65.0462 8.09048 63.5405 13.1773 62.657C20.5121 61.3814 29.7603 61.3082 33.608 61.7107C34.0681 61.7526 34.5648 61.7682 34.9778 61.7787C35.1712 61.7839 35.3489 61.7891 35.4692 61.7944C35.6574 61.7944 35.8456 61.8519 36.0129 61.9669C39.8136 64.5704 44.3253 65.6787 48.9154 65.6787C54.1748 65.6787 59.5282 64.2306 64.0242 61.9094C64.1444 61.8467 64.2804 61.8101 64.4267 61.7996C68.9907 61.58 74.3285 61.7264 79.5878 62.2649C84.4497 62.7615 89.249 63.5823 93.3111 64.7429C94.7226 65.1455 95.7787 65.6317 96.5263 66.1911C97.2007 66.693 97.6398 67.2576 97.8751 67.8745C98.1208 68.5227 98.126 69.1919 97.9326 69.8768C97.7705 70.4466 97.4621 71.0217 97.0334 71.602C96.84 71.8634 96.657 72.1196 96.4635 72.3966C95.4127 73.8971 94.0326 75.868 92.2551 76.6679C87.4819 78.8165 80.6281 78.8845 73.4658 78.9525C69.7436 78.9891 65.9324 79.0257 62.3147 79.3655C62.3983 80.4372 62.1003 80.5313 61.1436 80.6306C59.8366 80.7718 58.6499 80.4111 57.4213 79.8726C56.5064 79.9667 55.6177 80.0556 54.7551 80.1392C51.0171 80.5104 47.8228 80.8293 45.6323 81.1848L45.5121 81.2057C44.8272 81.3155 44.4717 81.373 44.1737 81.7442C44.1633 81.7599 44.1528 81.7756 44.1423 81.786C44.0848 81.8644 42.1191 83.0093 40.6501 83.2446C40.0855 83.3335 39.5418 83.323 39.0869 83.1453C38.4491 82.9152 38.0309 82.4395 37.9577 81.6344Z" fill="#FFFFFE"/>
<path d="M43.0237 26.9972C42.4956 27.0965 41.9833 26.7515 41.8787 26.2182C41.7794 25.6902 42.1244 25.1778 42.6525 25.0733C42.9609 25.0158 43.2171 24.9635 43.3164 24.9426C43.4628 24.9112 43.5621 24.8903 43.583 24.8851C44.4404 24.5975 45.0887 24.263 45.5069 23.7559C45.9252 23.2487 46.1656 22.5116 46.2284 21.4137C46.2597 20.8753 46.7198 20.4623 47.2583 20.4936C47.7968 20.525 48.2098 20.985 48.1784 21.5235C48.0895 23.0658 47.6974 24.1636 47.0126 24.9949C46.3277 25.8261 45.3919 26.3437 44.2052 26.741H44.1999C44.1006 26.7724 43.9281 26.8142 43.7033 26.8612C43.4314 26.9135 43.2119 26.9606 43.0237 26.9972ZM51.8955 21.6856C51.8589 21.1471 52.2614 20.6766 52.7999 20.64C53.3384 20.6034 53.8037 21.006 53.8455 21.5444C53.9239 22.6005 54.1644 23.301 54.5774 23.7872C54.9956 24.2786 55.6334 24.608 56.4804 24.8903C56.4908 24.8955 56.6372 24.9269 56.862 24.974C57.2489 25.0576 57.5312 25.1151 57.7612 25.1569C58.2892 25.2615 58.6343 25.7791 58.5245 26.3071C58.4199 26.8351 57.9076 27.1801 57.3743 27.0704C56.9509 26.9867 56.5849 26.9083 56.4595 26.8822C56.1719 26.8194 55.9523 26.7724 55.8582 26.741C54.6924 26.3489 53.7723 25.8575 53.0927 25.0576C52.4026 24.2473 52 23.186 51.8955 21.6856Z" fill="#FFFFFE"/>
<path d="M50.2016 0C53.2808 0 55.8321 0.98808 57.6253 2.73944C59.4289 4.49603 60.4483 6.99498 60.4483 10.0115C60.4483 13.3731 59.293 16.5882 57.4998 18.967C55.6491 21.4189 53.1083 23.0082 50.4159 23.0082C47.666 23.0082 45.0207 21.398 43.0811 18.9408C41.1886 16.5464 39.9548 13.326 39.9548 10.0167C39.9548 7.00021 40.9743 4.50126 42.7779 2.74467C44.5711 0.98808 47.1223 0 50.2016 0ZM56.266 4.1353C54.8388 2.73944 52.7528 1.95525 50.2016 1.95525C47.6504 1.95525 45.5696 2.73944 44.1372 4.1353C42.7152 5.5207 41.9153 7.53869 41.9153 10.0063C41.9153 12.8712 42.9818 15.6577 44.6129 17.7227C46.197 19.725 48.2934 21.0372 50.4159 21.0372C52.4601 21.0372 54.4467 19.7564 55.9419 17.7802C57.4946 15.7256 58.4931 12.9339 58.4931 10.0063C58.4879 7.53869 57.688 5.52593 56.266 4.1353Z" fill="#FFFFFE"/>
<path d="M37.252 63.0488C36.9853 63.5141 36.3894 63.6762 35.9188 63.4095C35.4536 63.1429 35.2915 62.5469 35.5581 62.0764C36.0129 61.287 36.9906 59.1645 37.6127 56.8328C37.9996 55.3899 38.24 53.8895 38.1093 52.6452C38.0466 52.0283 37.9839 51.4637 37.9316 50.9514C37.597 47.7989 37.4611 46.5233 37.4977 45.5091C37.5238 44.7824 37.6336 44.2648 37.8166 43.3918C38.0048 42.4978 38.2766 41.196 38.6217 38.8016C38.9667 36.4386 38.5903 33.375 38.2557 30.6983C38.0728 29.2136 37.9002 27.8439 37.8741 26.678C37.8636 26.1709 38.24 25.7422 38.7367 25.6847C38.8204 25.6743 39.7666 25.5279 40.6449 25.3972C41.3298 25.2926 41.9623 25.1933 42.2081 25.1619C42.7413 25.094 43.2327 25.4704 43.3007 26.0089C43.3059 26.035 43.3059 26.0664 43.3059 26.0925C43.5046 30.7924 44.3097 34.8911 45.6324 37.7404C46.7564 40.1609 48.2306 41.609 49.982 41.609C51.7334 41.609 53.1972 40.1609 54.316 37.7456C55.6334 34.8964 56.4333 30.7924 56.6319 26.0821C56.6528 25.5436 57.1077 25.1253 57.6462 25.1463C57.6828 25.1463 57.7193 25.1515 57.7559 25.1567C58.0173 25.1933 58.6656 25.2926 59.3766 25.3972C60.3699 25.5488 61.4678 25.7161 61.5723 25.7266C62.1056 25.7893 62.482 26.2703 62.4297 26.7983C62.4245 27.0283 62.414 27.274 62.4088 27.5407C62.3304 30.1703 62.1683 35.4192 62.6859 38.9951C63.5694 45.1431 63.5433 45.2529 62.9473 47.7205V47.7257C62.7068 48.7243 62.3618 50.1515 61.9435 52.7132C61.7501 53.9104 61.954 55.3533 62.3199 56.7439C62.9368 59.086 63.9929 61.2452 64.4582 62.0712C64.7248 62.5417 64.5575 63.1325 64.087 63.3991C63.6165 63.6605 63.0257 63.4984 62.7591 63.0279C62.2467 62.1182 61.0914 59.7604 60.4274 57.2406C59.9987 55.6147 59.7687 53.8999 60.0144 52.3943C60.4431 49.7751 60.7986 48.2956 61.0495 47.2604C61.5567 45.1484 61.5828 45.0542 60.7463 39.2617C60.2131 35.5603 60.3699 30.2278 60.4536 27.525C60.0458 27.4622 59.5544 27.389 59.0838 27.3159L58.5192 27.2322C58.2369 31.7439 57.4057 35.6962 56.0882 38.5455C54.6401 41.6718 52.5855 43.5486 49.9768 43.5486C47.3733 43.5486 45.3082 41.6718 43.8549 38.5402C42.5322 35.6962 41.6905 31.7439 41.4082 27.2427L40.9324 27.3159C40.5717 27.3734 40.1953 27.4309 39.8712 27.4779C39.9391 28.3405 40.0646 29.3652 40.2005 30.4474C40.5456 33.2443 40.9429 36.4386 40.556 39.0683C40.2058 41.4783 39.9182 42.8376 39.7248 43.7734C39.5627 44.5471 39.4686 45.0124 39.4477 45.5614C39.4163 46.4292 39.547 47.6682 39.8712 50.7318C39.9234 51.2441 39.9862 51.8035 40.0489 52.4256C40.2058 53.9417 39.9391 55.6774 39.5 57.319C38.836 59.8389 37.7538 62.1705 37.252 63.0488Z" fill="#FFFFFE"/>
<path d="M39.6568 42.2837C39.9234 42.7542 39.7561 43.3502 39.2909 43.6168C38.8203 43.8834 38.2244 43.7161 37.9577 43.2508C37.8166 42.9999 37.7538 42.8849 37.6859 42.7646C37.2624 42.0014 36.8285 41.2119 36.473 40.9924C36.4259 40.961 36.2796 41.1178 35.945 41.6511C35.579 42.2366 35.2078 42.7751 34.8367 43.2508C34.4759 43.7161 34.1257 44.103 33.7963 44.3801C32.5155 45.4832 31.0987 46.5183 29.7342 47.5168C27.9149 48.85 26.1949 50.1047 25.1963 51.2287C23.3404 53.3198 21.312 55.249 19.1685 57.0108C16.8787 58.8876 14.4738 60.571 12.0324 62.0505L12.0167 62.061C10.9502 62.7249 9.59617 63.53 8.22645 64.3456C5.9523 65.6996 3.62587 67.085 1.52946 68.5122C1.08509 68.8155 0.478647 68.6952 0.175427 68.2508C0.0708678 68.094 0.0133604 67.9215 0.0081325 67.7437C-0.0493748 66.442 0.201566 65.25 0.651169 64.1783C1.51901 62.1132 3.13967 60.5135 4.73419 59.4261C6.35485 58.323 8.01733 57.727 8.8904 57.6904C11.4939 54.9248 15.7442 51.1868 18.5412 48.7193C19.7541 47.6475 20.6951 46.8215 21.0663 46.466C21.6675 45.3263 22.4151 44.1657 23.262 43.0417C24.1508 41.8654 25.1545 40.7153 26.2158 39.6697C26.2785 39.607 26.2576 39.5181 26.4301 39.173C27.7005 36.6323 31.6476 28.7224 38.3498 26.2496C38.8569 26.0614 39.4163 26.3228 39.6045 26.8299C39.7927 27.337 39.5313 27.8964 39.0242 28.0846C33.0539 30.2856 29.3682 37.6726 28.1815 40.0409C27.9253 40.5584 27.758 40.8826 27.5855 41.0551C26.6027 42.0275 25.6616 43.0992 24.8199 44.2128C23.9991 45.3002 23.2829 46.4137 22.7288 47.4907C22.6869 47.5743 22.6294 47.6475 22.5667 47.7207C22.206 48.0971 21.1917 48.9911 19.8377 50.1831C16.9414 52.7343 12.4768 56.6657 9.99872 59.3633C9.74255 59.6404 9.34523 59.7502 8.97405 59.63V59.6352C8.38329 59.6613 7.14427 60.1423 5.82683 61.0363C4.4937 61.9459 3.15012 63.2582 2.44435 64.9311C2.33456 65.1977 2.23523 65.4696 2.16204 65.7571C3.80362 64.7115 5.52884 63.6816 7.22792 62.6674C8.4408 61.9459 9.63277 61.2349 10.9763 60.3985C10.9868 60.388 11.0025 60.3828 11.0129 60.3723C13.3969 58.9294 15.7285 57.3035 17.919 55.4999C19.9893 53.8008 21.9446 51.9449 23.7273 49.9321C24.8722 48.6408 26.6654 47.3286 28.5684 45.938C29.9067 44.9604 31.3026 43.9409 32.5102 42.9006C32.7403 42.7019 33.0069 42.4091 33.2892 42.0432C33.5976 41.6459 33.9322 41.1597 34.272 40.6107C35.3804 38.8332 36.4521 38.6764 37.4924 39.3247C38.2766 39.8161 38.8413 40.8303 39.385 41.8184C39.5104 42.017 39.6202 42.2209 39.6568 42.2837ZM8.91131 59.5986C8.85903 59.5777 8.97927 59.63 8.9845 59.63V59.6247C8.95836 59.6143 8.93222 59.6091 8.91131 59.5986Z" fill="#FFFFFE"/>
<path d="M62.9421 41.9804C62.7068 42.4666 62.1213 42.6705 61.6351 42.4352C61.1489 42.2 60.945 41.6144 61.1803 41.1283C61.3946 40.6786 61.6822 40.2081 62.0324 39.8422C62.3722 39.4867 62.7748 39.2253 63.2453 39.1312C63.7629 39.0318 64.2961 39.1416 64.8346 39.5599C65.1378 39.7951 65.441 40.1402 65.7338 40.6055C66.0736 41.1544 66.4082 41.6406 66.7167 42.0327C66.999 42.3934 67.2604 42.6862 67.4956 42.8901C68.6981 43.9304 70.0939 44.9499 71.4375 45.9275C73.3405 47.3181 75.1336 48.6303 76.2786 49.9216C78.0613 51.9292 80.0165 53.7903 82.0868 55.4894C84.2825 57.293 86.609 58.9189 88.9929 60.3618C89.0086 60.3671 89.019 60.3775 89.0295 60.388C90.3731 61.2244 91.565 61.9354 92.7779 62.6569C94.477 63.6711 96.2075 64.701 97.8438 65.7466C97.7654 65.4643 97.6713 65.1872 97.5615 64.9206C96.861 63.2529 95.5174 61.9354 94.179 61.0258C92.8668 60.1318 91.6226 59.6508 91.0318 59.6247V59.6195C90.6606 59.7397 90.2633 59.6299 90.0071 59.3528C87.5291 56.6552 83.0644 52.7238 80.1681 50.1726C78.8141 48.9806 77.7999 48.0866 77.4392 47.7102C77.3712 47.6423 77.3189 47.5638 77.2771 47.4802C76.7229 46.4032 76.0067 45.2897 75.1859 44.2023C74.3495 43.0887 73.4084 42.017 72.4203 41.0446C72.2426 40.8721 72.0805 40.548 71.8244 40.0304C70.6376 37.6569 66.9519 30.2698 60.9816 28.0741C60.4745 27.8859 60.2131 27.3265 60.4013 26.8194C60.5843 26.3123 61.1489 26.0509 61.656 26.2391C68.3582 28.7067 72.3106 36.6218 73.5757 39.1625C73.7482 39.5076 73.7273 39.5965 73.7901 39.6592C74.8513 40.7048 75.8551 41.8549 76.7438 43.0312C77.5908 44.1552 78.3384 45.3158 78.9396 46.4555C79.3108 46.8162 80.2466 47.6423 81.4647 48.7088C84.2616 51.1711 88.5119 54.9143 91.1154 57.6799C91.9885 57.7165 93.651 58.3177 95.2717 59.4156C96.8714 60.503 98.4868 62.0975 99.3547 64.1678C99.8043 65.2395 100.055 66.4315 99.9977 67.7332C99.9925 67.9058 99.935 68.0835 99.8304 68.2403C99.5272 68.6847 98.9208 68.805 98.4764 68.5017C96.38 67.0745 94.0535 65.6891 91.7794 64.3351C90.4097 63.5195 89.0609 62.7144 87.9891 62.0505L87.9735 62.04C85.532 60.5605 83.1272 58.8771 80.8373 57.0003C78.6939 55.2385 76.6602 53.3093 74.8095 51.2182C73.811 50.0942 72.0962 48.8395 70.2717 47.5063C68.9072 46.513 67.4904 45.4727 66.2096 44.3696C65.8854 44.0873 65.5299 43.7004 65.1692 43.2403C64.8032 42.7698 64.4268 42.2261 64.0609 41.6406C63.8936 41.3687 63.7472 41.1962 63.6217 41.0969C63.5851 41.0655 63.6113 41.0446 63.5956 41.0498C63.5694 41.0551 63.5119 41.1073 63.4387 41.1858C63.2558 41.3896 63.0832 41.6876 62.9421 41.9804ZM91.0318 59.6299C91.037 59.6247 91.1573 59.5724 91.105 59.5986C91.0789 59.609 91.0579 59.6195 91.0318 59.6247V59.6299Z" fill="#FFFFFE"/>
</svg>
